# xmcd
#
# Track frame offsets: 
#        150
#        13596
#        28826
#        43502
#        58236
#        75035
#        89040
#        104533
#        119397
#
# Disc length: 1814 seconds
#
# Revision: 0
# Processed by: cddbd v1.5.2PL0 Copyright (c) Steve Scherf et al.
# Submitted via: ExactAudioCopy v0.99pb4
#
DISCID=6e071409
DTITLE=Clarence Reid - On The Job
DYEAR=1975
DGENRE=Soul
TTITLE0=The Best Part Of A Man
TTITLE1=Mr. Smith's Wife
TTITLE2=Come On With It
TTITLE3=The Only Time She Loves Me
TTITLE4=Baptize Me
TTITLE5=Caution! Love Ahead
TTITLE6=Down Where The Love Is
TTITLE7=Sleep With Me
TTITLE8=Nappy-Haired Cowboy
EXTD=
EXTT0=
EXTT1=
EXTT2=
EXTT3=
EXTT4=
EXTT5=
EXTT6=
EXTT7=
EXTT8=
PLAYORDER=
